<?xml version="1.0" encoding="UTF-8" standalone="no" ?>
<!DOCTYPE svg PUBLIC "-//W3C//DTD SVG 1.1//EN" "http://www.w3.org/Graphics/SVG/1.1/DTD/svg11.dtd">
<svg xmlns="http://www.w3.org/2000/svg" xmlns:xlink="http://www.w3.org/1999/xlink" version="1.1" width="1080" height="1080" viewBox="0 0 1080 1080" xml:space="preserve">
<desc>Created with Fabric.js 5.2.4</desc>
<defs>
</defs>
<g transform="matrix(1 0 0 1 540 540)" id="a1ff1329-acf4-4acd-93f4-d2d3ee7e7546"  >
<rect style="stroke: none; stroke-width: 1; stroke-dasharray: none; stroke-linecap: butt; stroke-dashoffset: 0; stroke-linejoin: miter; stroke-miterlimit: 4; fill: rgb(255,255,255); fill-rule: nonzero; opacity: 1; visibility: hidden;" vector-effect="non-scaling-stroke"  x="-540" y="-540" rx="0" ry="0" width="1080" height="1080" />
</g>
<g transform="matrix(1 0 0 1 540 540)" id="0097c8d1-df1f-496f-a814-e3f804d73f99"  >
</g>
<g transform="matrix(5.34 0 0 5.34 511.61 616.4)" id="e3649868-7c11-4cdb-9c5f-0cebce192ec9"  >
<path style="stroke: rgb(0,0,0); stroke-width: 0; stroke-dasharray: none; stroke-linecap: butt; stroke-dashoffset: 0; stroke-linejoin: miter; stroke-miterlimit: 4; fill: rgb(255,0,0); fill-rule: nonzero; opacity: 1;" vector-effect="non-scaling-stroke"  transform=" translate(-63.5, -23.5)" d="M 43.3183 32.6398 C 42.9368 33.1197 42.6002 33.5882 42.2176 34.0158 C 40.7714 35.632 38.9587 36.5954 36.8302 36.9822 C 34.9767 37.3192 33.1378 37.2587 31.3159 36.7756 C 29.5534 36.3082 27.9949 35.4641 26.6512 34.2303 C 24.7647 32.4987 23.5916 30.3546 22.9929 27.882 C 22.3053 25.0417 22.3816 22.2217 23.2632 19.4333 C 23.8738 17.5019 24.8755 15.7979 26.3207 14.3682 C 28.0713 12.6363 30.1722 11.5941 32.6058 11.2252 C 34.2751 10.9724 35.9343 11.0215 37.572 11.4473 C 39.6682 11.9924 41.383 13.1216 42.6987 14.8456 C 42.8984 15.1074 43.082 15.3817 43.3261 15.6396 C 43.3416 15.2879 43.3602 14.9366 43.372 14.5849 C 43.3961 13.8618 43.4129 13.1384 43.4402 12.4153 C 43.4588 11.9179 43.6933 11.6833 44.1916 11.6822 C 45.6328 11.6786 47.0744 11.6833 48.5157 11.689 C 48.8462 11.6905 49.0724 11.8688 49.1517 12.1897 C 49.1843 12.3222 49.1918 12.4633 49.1918 12.6005 C 49.1936 20.291 49.1936 27.9812 49.1929 35.6718 C 49.1929 35.7692 49.1915 35.8677 49.1768 35.9637 C 49.1162 36.3669 48.8961 36.5718 48.4866 36.5779 C 47.8352 36.5875 47.1838 36.5818 46.5324 36.5822 C 45.7669 36.5822 45.0015 36.5843 44.2357 36.5815 C 43.6839 36.5793 43.4602 36.3687 43.4394 35.8233 C 43.4014 34.8241 43.3713 33.8245 43.3369 32.8254 C 43.3351 32.772 43.3261 32.7186 43.3179 32.6398 L 43.3183 32.6398 Z M 27.8859 24.1184 C 27.8752 25.1785 28.0351 26.2117 28.3879 27.2095 C 28.8851 28.6166 29.7033 29.8016 30.9186 30.6834 C 32.8223 32.0647 34.9591 32.4045 37.2317 31.9977 C 38.7318 31.7295 40.0271 31.0347 41.0671 29.9116 C 42.4474 28.4207 43.0343 26.6074 43.1254 24.6169 C 43.1892 23.2295 42.992 21.8747 42.4532 20.584 C 41.7379 18.871 40.5688 17.5753 38.8694 16.7978 C 37.2436 16.054 35.5424 15.929 33.8083 16.3036 C 31.7787 16.7419 30.188 17.8303 29.0913 19.6066 C 28.238 20.9887 27.8945 22.5093 27.8859 24.1181 L 27.8859 24.1184 Z M 75.9572 16.6832 C 75.9572 16.3784 75.954 16.074 75.9579 15.7692 C 75.9726 14.6229 75.988 13.4765 76.006 12.3301 C 76.0135 11.8509 76.1831 11.6883 76.6631 11.6876 C 77.0213 11.6872 77.3798 11.6847 77.738 11.6883 C 78.1112 11.6923 78.2915 11.8588 78.3266 12.2291 C 78.336 12.3261 78.3345 12.4243 78.3345 12.5217 C 78.3345 20.3501 78.3417 28.1782 78.3302 36.0066 C 78.327 38.235 77.7871 40.3214 76.5068 42.1802 C 75.5797 43.526 74.3693 44.5549 72.9367 45.3271 C 71.0929 46.3205 69.1088 46.7911 67.0291 46.9505 C 64.9594 47.1091 62.9348 46.8832 60.9436 46.3395 C 59.6999 46 58.5046 45.5294 57.4269 44.8017 C 56.925 44.4629 56.8644 44.1803 57.1731 43.6575 C 57.2972 43.4472 57.4223 43.2377 57.5557 43.0336 C 57.7539 42.7302 58.0741 42.6475 58.3802 42.8441 C 59.9509 43.8508 61.6811 44.4095 63.5156 44.6613 C 65.1709 44.8887 66.8251 44.8672 68.4732 44.5675 C 69.8162 44.3232 71.0857 43.8845 72.2329 43.1371 C 74.0191 41.9732 75.1003 40.3161 75.5894 38.2582 C 75.8106 37.3278 75.897 36.383 75.8923 35.4272 C 75.8859 34.0437 75.8905 32.6606 75.8905 31.2771 L 75.8905 30.9967 C 75.8679 30.9888 75.845 30.981 75.8224 30.9731 C 75.7751 31.0397 75.7227 31.1038 75.6808 31.174 C 74.2087 33.6437 72.0748 35.247 69.2956 35.9579 C 66.6767 36.628 64.0641 36.5481 61.5043 35.6596 C 58.9635 34.7775 56.9702 33.1846 55.5501 30.8932 C 54.2699 28.8275 53.698 26.5594 53.6353 24.1471 C 53.5844 22.1974 53.8572 20.3011 54.5818 18.4832 C 55.6638 15.77 57.4807 13.7046 60.0914 12.3738 C 61.7779 11.5143 63.5863 11.1149 65.4792 11.0831 C 66.6817 11.063 67.8702 11.1619 69.0382 11.4509 C 70.7157 11.8663 72.2254 12.6112 73.5322 13.7533 C 74.4611 14.5652 75.204 15.5232 75.8048 16.5958 C 75.8238 16.6298 75.8471 16.6617 75.8687 16.6943 C 75.898 16.6904 75.9271 16.6868 75.9565 16.6828 L 75.9572 16.6832 Z M 75.9396 23.7574 C 75.9418 22.2139 75.6776 20.6108 75.029 19.0838 C 74.3636 17.5169 73.3669 16.2062 71.9773 15.208 C 70.4759 14.1297 68.7851 13.5857 66.9531 13.4518 C 65.0673 13.3139 63.2449 13.5836 61.5302 14.3929 C 58.9492 15.6113 57.2642 17.6255 56.4486 20.3448 C 55.8136 22.4628 55.8057 24.6098 56.3431 26.7546 C 56.7293 28.296 57.437 29.677 58.5061 30.8545 C 60.1907 32.71 62.3286 33.6895 64.7923 33.9692 C 66.5709 34.1712 68.3197 33.9932 70.003 33.3497 C 72.0418 32.5704 73.6043 31.2306 74.654 29.3156 C 75.5833 27.6206 75.9432 25.7848 75.9396 23.7574 Z M 102.716 32.7075 C 102.728 32.7777 102.748 32.8479 102.751 32.9188 C 102.766 33.3658 102.776 33.8127 102.791 34.2597 C 102.81 34.8284 102.825 35.3971 102.856 35.9651 C 102.88 36.4024 103.051 36.565 103.481 36.5761 C 103.847 36.5854 104.214 36.5865 104.58 36.575 C 104.936 36.5639 105.096 36.4214 105.166 36.0722 C 105.188 35.9619 105.187 35.8458 105.187 35.7323 C 105.187 28.0009 105.187 20.2695 105.187 12.5382 C 105.187 12.4408 105.191 12.3419 105.177 12.2459 C 105.121 11.8609 104.925 11.6915 104.534 11.6887 C 104.151 11.6858 103.768 11.6872 103.385 11.6883 C 102.951 11.6894 102.776 11.8466 102.734 12.2742 C 102.725 12.363 102.73 12.4529 102.73 12.5425 C 102.73 15.4641 102.732 18.3858 102.729 21.3074 C 102.727 23.4476 102.781 25.5903 102.696 27.7273 C 102.592 30.3324 101.396 32.3727 99.1274 33.6935 C 97.0659 34.8936 94.8349 35.1435 92.5239 34.5892 C 90.5445 34.1143 89.1338 32.9256 88.2948 31.0734 C 87.7664 29.9069 87.5466 28.6696 87.5452 27.3957 C 87.5398 22.4477 87.543 17.4994 87.5419 12.5514 C 87.5419 12.4218 87.5394 12.2903 87.5201 12.1625 C 87.4738 11.8523 87.3064 11.6962 86.997 11.6905 C 86.541 11.6822 86.0849 11.6815 85.6289 11.6908 C 85.336 11.6969 85.165 11.8581 85.1166 12.1492 C 85.1008 12.2449 85.0969 12.3433 85.0969 12.4408 C 85.0961 17.4296 85.0897 22.4184 85.1004 27.4072 C 85.1033 28.8049 85.3037 30.1787 85.7533 31.5096 C 86.1842 32.7845 86.8375 33.9295 87.8029 34.8735 C 89.1061 36.1481 90.7026 36.8289 92.4912 37.0782 C 93.8479 37.2673 95.2031 37.2375 96.5457 36.9528 C 98.9739 36.4378 100.941 35.2141 102.353 33.1477 C 102.457 32.9962 102.557 32.8429 102.659 32.6903 C 102.678 32.6961 102.697 32.7018 102.716 32.7075 Z M 119.068 37.1828 C 120.766 37.1394 122.374 36.7627 123.838 35.8749 C 125.171 35.0665 126.143 33.9502 126.635 32.4583 C 126.945 31.5174 127.075 30.553 126.955 29.5534 C 126.832 28.5177 126.541 27.5518 125.965 26.6769 C 125.202 25.5166 124.148 24.6753 122.924 24.0719 C 121.641 23.4397 120.31 22.9072 119.006 22.317 C 118.074 21.8948 117.13 21.4908 116.231 21.003 C 115.113 20.3956 114.311 19.4992 114.101 18.1895 C 113.875 16.7742 114.129 15.4946 115.252 14.5004 C 115.902 13.9245 116.687 13.6129 117.533 13.4557 C 119.408 13.1065 121.174 13.3723 122.737 14.5111 C 123.324 14.9391 123.826 15.4824 124.364 15.9766 C 124.684 16.2703 124.971 16.2807 125.284 15.9788 C 125.465 15.8043 125.632 15.6138 125.792 15.4186 C 126.061 15.0884 126.066 14.7504 125.808 14.4148 C 124.922 13.2648 123.823 12.3849 122.485 11.8094 C 120.726 11.0519 118.903 10.8929 117.033 11.2664 C 115.724 11.5279 114.542 12.0694 113.551 12.9787 C 112.339 14.0903 111.715 15.4838 111.638 17.1173 C 111.57 18.5634 111.929 19.8878 112.832 21.0445 C 113.668 22.115 114.755 22.8703 115.959 23.4448 C 117.14 24.0077 118.356 24.4984 119.563 25.0041 C 120.614 25.4439 121.665 25.8761 122.599 26.5466 C 123.726 27.3567 124.441 28.4085 124.573 29.8188 C 124.779 32.0221 123.705 33.721 121.616 34.4524 C 120.145 34.9673 118.638 35.0211 117.114 34.7403 C 115.665 34.4735 114.417 33.8084 113.357 32.7917 C 113.034 32.4823 112.743 32.1402 112.422 31.8301 C 112.118 31.5375 111.695 31.5454 111.442 31.834 C 111.286 32.011 111.14 32.1968 111.002 32.3877 C 110.752 32.7344 110.757 33.1043 111.019 33.4496 C 111.186 33.6691 111.361 33.8851 111.55 34.0856 C 113.503 36.1546 115.913 37.1706 118.751 37.182 C 118.857 37.182 118.963 37.1845 119.069 37.182 L 119.068 37.1828 Z M 10.8869 33.7543 C 10.2491 32.1098 9.61202 30.4656 8.9753 28.8207 C 8.18907 26.789 7.40464 24.7562 6.61734 22.7249 C 5.58911 20.0722 4.55946 17.4199 3.52872 14.7683 C 3.18419 13.8822 2.83643 12.9973 2.48508 12.1138 C 2.3657 11.8137 2.1237 11.6883 1.80964 11.6876 C 1.47586 11.6869 1.14101 11.7037 0.808303 11.684 C 0.0270969 11.6382 -0.158256 11.9952 0.124255 12.7015 C 0.716882 14.1806 1.30377 15.6618 1.8921 17.1427 C 2.86726 19.598 3.84171 22.0538 4.81651 24.5095 C 5.52709 26.3002 6.23624 28.0915 6.94897 29.8819 C 7.75168 31.8981 8.56229 33.9116 9.35712 35.9307 C 9.5206 36.3465 9.80132 36.5646 10.2358 36.5757 C 10.7076 36.5879 11.1805 36.5875 11.6523 36.5729 C 12.0356 36.561 12.3152 36.3709 12.4619 36.0092 C 12.6547 35.5346 12.8444 35.059 13.0337 34.5831 C 13.7579 32.7627 14.4821 30.9426 15.2056 29.1219 C 16.0549 26.9842 16.9032 24.8458 17.7525 22.7077 C 18.3677 21.1588 18.984 19.6106 19.5996 18.0617 C 20.1072 16.7849 20.6145 15.5082 21.1215 14.2311 C 21.3434 13.672 21.5703 13.1148 21.7826 12.5521 C 21.9977 11.982 21.7887 11.6883 21.1821 11.6872 C 20.8156 11.6865 20.4471 11.6643 20.0836 11.6965 C 19.8939 11.7134 19.6756 11.7854 19.5386 11.9089 C 19.3909 12.0421 19.2995 12.2545 19.2246 12.4483 C 18.2763 14.8968 17.3359 17.3483 16.393 19.799 C 15.4967 22.1279 14.5997 24.4568 13.7038 26.7858 C 13.0061 28.599 12.3099 30.413 11.6115 32.2258 C 11.4046 32.763 11.1931 33.2984 10.9643 33.8843 C 10.9181 33.807 10.8984 33.7823 10.8873 33.754 L 10.8869 33.7543 Z M 49.5934 3.18443 C 49.6149 1.46611 48.24 0.0364401 46.5585 0.000626726 C 44.6376 -0.0402005 43.2813 1.3601 43.2419 3.01933 C 43.1964 4.93535 44.548 6.3378 46.4176 6.3575 C 48.1762 6.37612 49.5704 4.98298 49.593 3.18443 L 49.5934 3.18443 Z" stroke-linecap="round" />
</g>
</svg>